name Walk4.mot
datacolumns 19
datarows 25
range 1.77000000 1.79400000
endheader

                time	   L_ground_force_vx	   L_ground_force_vy	   L_ground_force_vz	   L_ground_force_px	   L_ground_force_py	   L_ground_force_pz	   R_ground_force_vx	   R_ground_force_vy	   R_ground_force_vz	   R_ground_force_px	   R_ground_force_py	   R_ground_force_pz	   L_ground_torque_x	   L_ground_torque_y	   L_ground_torque_z	   R_ground_torque_x	   R_ground_torque_y	   R_ground_torque_z	
          1.77000000	          0.00000000	          0.00000000	          0.00000000	          0.00000000	          0.00000000	          0.00000000	          0.00000000	          0.00000000	          0.00000000	          0.00000000	          0.00000000	          0.00000000	          0.00000000	          0.00000000	          0.00000000	          0.00000000	          0.00000000	          0.00000000	
          1.77100000	          0.00000000	          0.00000000	          0.00000000	          0.00000000	          0.00000000	          0.00000000	          0.00000000	          0.00000000	          0.00000000	          0.00000000	          0.00000000	          0.00000000	          0.00000000	          0.00000000	          0.00000000	          0.00000000	          0.00000000	          0.00000000	
          1.77200000	          0.00000000	          0.00000000	          0.00000000	          0.00000000	          0.00000000	          0.00000000	          0.00000000	          0.00000000	          0.00000000	          0.00000000	          0.00000000	          0.00000000	          0.00000000	          0.00000000	          0.00000000	          0.00000000	          0.00000000	          0.00000000	
          1.77300000	          0.00000000	          0.00000000	          0.00000000	          0.00000000	          0.00000000	          0.00000000	          0.00000000	          0.00000000	          0.00000000	          0.00000000	          0.00000000	          0.00000000	          0.00000000	          0.00000000	          0.00000000	          0.00000000	          0.00000000	          0.00000000	
          1.77400000	         -9.11154191	         12.45439974	         -3.64556584	         -0.37503037	          0.00000000	         -0.03864776	          0.00000000	          0.00000000	          0.00000000	          0.00000000	          0.00000000	          0.00000000	          0.00000000	         -0.11038864	          0.00000000	          0.00000000	          0.00000000	          0.00000000	
          1.77500000	        -14.28640976	         19.05745916	         -5.56934779	         -0.37493150	          0.00000000	         -0.03647313	          0.00000000	          0.00000000	          0.00000000	          0.00000000	          0.00000000	          0.00000000	          0.00000000	         -0.11399472	          0.00000000	          0.00000000	          0.00000000	          0.00000000	
          1.77600000	        -20.47476172	         26.97966317	         -7.70025684	         -0.37486022	          0.00000000	         -0.03465400	          0.00000000	          0.00000000	          0.00000000	          0.00000000	          0.00000000	          0.00000000	          0.00000000	         -0.08850961	          0.00000000	          0.00000000	          0.00000000	          0.00000000	
          1.77700000	        -27.68789009	         36.71108426	         -9.91536864	         -0.37473718	          0.00000000	         -0.03323257	          0.00000000	          0.00000000	          0.00000000	          0.00000000	          0.00000000	          0.00000000	          0.00000000	         -0.03328417	          0.00000000	          0.00000000	          0.00000000	          0.00000000	
          1.77800000	        -35.91204973	         49.05447103	        -12.09180003	         -0.37449290	          0.00000000	         -0.03239014	          0.00000000	          0.00000000	          0.00000000	          0.00000000	          0.00000000	          0.00000000	          0.00000000	          0.03914980	          0.00000000	          0.00000000	          0.00000000	          0.00000000	
          1.77900000	        -44.91107282	         64.77785696	        -14.07941332	         -0.37418559	          0.00000000	         -0.03207247	          0.00000000	          0.00000000	          0.00000000	          0.00000000	          0.00000000	          0.00000000	          0.00000000	          0.11513977	          0.00000000	          0.00000000	          0.00000000	          0.00000000	
          1.78000000	        -54.16088702	         84.37864400	        -15.72086975	         -0.37388972	          0.00000000	         -0.03208695	          0.00000000	          0.00000000	          0.00000000	          0.00000000	          0.00000000	          0.00000000	          0.00000000	          0.18780324	          0.00000000	          0.00000000	          0.00000000	          0.00000000	
          1.78100000	        -62.94386856	        108.00224745	        -16.90696436	         -0.37361045	          0.00000000	         -0.03230943	          0.00000000	          0.00000000	          0.00000000	          0.00000000	          0.00000000	          0.00000000	          0.00000000	          0.25462379	          0.00000000	          0.00000000	          0.00000000	          0.00000000	
          1.78200000	        -70.52393053	        135.46961099	        -17.61924573	         -0.37331691	          0.00000000	         -0.03258602	          0.00000000	          0.00000000	          0.00000000	          0.00000000	          0.00000000	          0.00000000	          0.00000000	          0.32275487	          0.00000000	          0.00000000	          0.00000000	          0.00000000	
          1.78300000	        -76.29540719	        166.34107515	        -17.94492308	         -0.37297891	          0.00000000	         -0.03274703	          0.00000000	          0.00000000	          0.00000000	          0.00000000	          0.00000000	          0.00000000	          0.00000000	          0.40565260	          0.00000000	          0.00000000	          0.00000000	          0.00000000	
          1.78400000	        -79.88188511	        199.95104193	        -18.08304391	         -0.37258756	          0.00000000	         -0.03277461	          0.00000000	          0.00000000	          0.00000000	          0.00000000	          0.00000000	          0.00000000	          0.00000000	          0.50425638	          0.00000000	          0.00000000	          0.00000000	          0.00000000	
          1.78500000	        -81.17790560	        235.39379894	        -18.32870811	         -0.37217448	          0.00000000	         -0.03275747	          0.00000000	          0.00000000	          0.00000000	          0.00000000	          0.00000000	          0.00000000	          0.00000000	          0.60471223	          0.00000000	          0.00000000	          0.00000000	          0.00000000	
          1.78600000	        -80.31963030	        271.51900858	        -19.01236995	         -0.37179843	          0.00000000	         -0.03271802	          0.00000000	          0.00000000	          0.00000000	          0.00000000	          0.00000000	          0.00000000	          0.00000000	          0.69521713	          0.00000000	          0.00000000	          0.00000000	          0.00000000	
          1.78700000	        -77.61925680	        307.00897726	        -20.41571017	         -0.37150425	          0.00000000	         -0.03260607	          0.00000000	          0.00000000	          0.00000000	          0.00000000	          0.00000000	          0.00000000	          0.00000000	          0.77187446	          0.00000000	          0.00000000	          0.00000000	          0.00000000	
          1.78800000	        -73.50207589	        340.54465996	        -22.70830194	         -0.37130259	          0.00000000	         -0.03239112	          0.00000000	          0.00000000	          0.00000000	          0.00000000	          0.00000000	          0.00000000	          0.00000000	          0.83289043	          0.00000000	          0.00000000	          0.00000000	          0.00000000	
          1.78900000	        -68.44970254	        371.00887162	        -25.92780637	         -0.37116922	          0.00000000	         -0.03208465	          0.00000000	          0.00000000	          0.00000000	          0.00000000	          0.00000000	          0.00000000	          0.00000000	          0.87670817	          0.00000000	          0.00000000	          0.00000000	          0.00000000	
          1.79000000	        -62.94249698	        397.65296145	        -29.99347823	         -0.37104811	          0.00000000	         -0.03171935	          0.00000000	          0.00000000	          0.00000000	          0.00000000	          0.00000000	          0.00000000	          0.00000000	          0.90255827	          0.00000000	          0.00000000	          0.00000000	          0.00000000	
          1.79100000	        -57.40654406	        420.19925947	        -34.72496520	         -0.37087560	          0.00000000	         -0.03132301	          0.00000000	          0.00000000	          0.00000000	          0.00000000	          0.00000000	          0.00000000	          0.00000000	          0.91216581	          0.00000000	          0.00000000	          0.00000000	          0.00000000	
          1.79200000	        -52.18352532	        438.86808944	        -39.85745499	         -0.37061784	          0.00000000	         -0.03090271	          0.00000000	          0.00000000	          0.00000000	          0.00000000	          0.00000000	          0.00000000	          0.00000000	          0.91173154	          0.00000000	          0.00000000	          0.00000000	          0.00000000	
          1.79300000	        -47.52987809	        454.27223051	        -45.07377481	         -0.37028438	          0.00000000	         -0.03047908	          0.00000000	          0.00000000	          0.00000000	          0.00000000	          0.00000000	          0.00000000	          0.00000000	          0.90894909	          0.00000000	          0.00000000	          0.00000000	          0.00000000	
          1.79400000	        -43.63084411	        467.20766402	        -50.05560383	         -0.36990890	          0.00000000	         -0.03011557	          0.00000000	          0.00000000	          0.00000000	          0.00000000	          0.00000000	          0.00000000	          0.00000000	          0.91075223	          0.00000000	          0.00000000	          0.00000000	          0.00000000	
